<svg width="362" height="188" viewBox="0 0 362 188" fill="none" xmlns="http://www.w3.org/2000/svg">
<path d="M2.21855 58.9128V50.9926H39.5345V58.9128H25.6242V96.4285H16.1288V58.9128H2.21855ZM54.9534 76.7278V96.4285H45.5024V50.9926H54.6872V68.3638H55.0865C55.8556 66.3524 57.098 64.7772 58.8137 63.6383C60.5294 62.4847 62.6814 61.9079 65.2697 61.9079C67.6361 61.9079 69.6994 62.4255 71.4594 63.4608C73.2343 64.4814 74.6098 65.953 75.5859 67.8758C76.5769 69.7837 77.065 72.0688 77.0502 74.7311V96.4285H67.5991V76.4172C67.6139 74.3169 67.0815 72.6826 66.0018 71.5142C64.9369 70.3457 63.4431 69.7615 61.5203 69.7615C60.2336 69.7615 59.0947 70.0351 58.1038 70.5824C57.1276 71.1296 56.3585 71.9283 55.7965 72.9784C55.2492 74.0137 54.9682 75.2635 54.9534 76.7278ZM84.4878 96.4285V62.3516H93.9389V96.4285H84.4878ZM89.2355 57.9589C87.8305 57.9589 86.625 57.493 85.6193 56.5612C84.6283 55.6146 84.1329 54.4831 84.1329 53.1668C84.1329 51.8652 84.6283 50.7486 85.6193 49.8168C86.625 48.8702 87.8305 48.3969 89.2355 48.3969C90.6406 48.3969 91.8386 48.8702 92.8296 49.8168C93.8353 50.7486 94.3382 51.8652 94.3382 53.1668C94.3382 54.4831 93.8353 55.6146 92.8296 56.5612C91.8386 57.493 90.6406 57.9589 89.2355 57.9589ZM101.51 96.4285V62.3516H110.672V68.2973H111.027C111.648 66.1823 112.691 64.5849 114.155 63.5052C115.62 62.4107 117.306 61.8635 119.214 61.8635C119.687 61.8635 120.197 61.8931 120.744 61.9522C121.292 62.0114 121.772 62.0927 122.187 62.1963V70.5824C121.743 70.4493 121.129 70.331 120.345 70.2274C119.561 70.1239 118.844 70.0721 118.193 70.0721C116.803 70.0721 115.56 70.3753 114.466 70.9817C113.386 71.5733 112.528 72.4016 111.892 73.4665C111.271 74.5314 110.961 75.759 110.961 77.1493V96.4285H101.51ZM146.907 62.3516V69.4509H126.385V62.3516H146.907ZM131.044 54.1873H140.495V85.9569C140.495 86.8296 140.628 87.5099 140.894 87.998C141.161 88.4713 141.53 88.8041 142.004 88.9963C142.492 89.1886 143.054 89.2847 143.69 89.2847C144.133 89.2847 144.577 89.2478 145.021 89.1738C145.465 89.0851 145.805 89.0185 146.041 88.9741L147.528 96.0069C147.055 96.1548 146.389 96.3249 145.531 96.5172C144.673 96.7243 143.631 96.85 142.403 96.8944C140.125 96.9831 138.129 96.6799 136.413 95.9848C134.712 95.2896 133.388 94.2099 132.442 92.7457C131.495 91.2814 131.029 89.4326 131.044 87.1993V54.1873ZM158.898 109.207C157.7 109.207 156.576 109.111 155.526 108.919C154.49 108.741 153.633 108.512 152.952 108.231L155.082 101.176C156.191 101.516 157.19 101.701 158.077 101.731C158.979 101.76 159.756 101.553 160.407 101.11C161.072 100.666 161.612 99.9116 162.026 98.8467L162.581 97.4046L150.357 62.3516H160.296L167.351 87.3768H167.706L174.827 62.3516H184.833L171.588 100.111C170.952 101.945 170.087 103.543 168.992 104.903C167.913 106.279 166.545 107.336 164.888 108.076C163.231 108.83 161.235 109.207 158.898 109.207ZM203.968 97.094C200.522 97.094 197.541 96.3619 195.027 94.8977C192.527 93.4186 190.597 91.3628 189.237 88.7301C187.876 86.0826 187.196 83.0136 187.196 79.5231C187.196 76.003 187.876 72.9267 189.237 70.294C190.597 67.6465 192.527 65.5907 195.027 64.1264C197.541 62.6474 200.522 61.9079 203.968 61.9079C207.414 61.9079 210.387 62.6474 212.886 64.1264C215.401 65.5907 217.338 67.6465 218.699 70.294C220.06 72.9267 220.74 76.003 220.74 79.5231C220.74 83.0136 220.06 86.0826 218.699 88.7301C217.338 91.3628 215.401 93.4186 212.886 94.8977C210.387 96.3619 207.414 97.094 203.968 97.094ZM204.012 89.7728C205.58 89.7728 206.889 89.3291 207.939 88.4417C208.989 87.5395 209.78 86.3119 210.313 84.7589C210.86 83.2059 211.134 81.4385 211.134 79.4566C211.134 77.4747 210.86 75.7072 210.313 74.1542C209.78 72.6013 208.989 71.3737 207.939 70.4715C206.889 69.5692 205.58 69.1181 204.012 69.1181C202.43 69.1181 201.098 69.5692 200.019 70.4715C198.954 71.3737 198.148 72.6013 197.6 74.1542C197.068 75.7072 196.802 77.4747 196.802 79.4566C196.802 81.4385 197.068 83.2059 197.6 84.7589C198.148 86.3119 198.954 87.5395 200.019 88.4417C201.098 89.3291 202.43 89.7728 204.012 89.7728ZM236.336 76.7278V96.4285H226.885V62.3516H235.893V68.3638H236.292C237.046 66.3819 238.311 64.8142 240.086 63.6605C241.861 62.4921 244.013 61.9079 246.542 61.9079C248.908 61.9079 250.971 62.4255 252.731 63.4608C254.491 64.4962 255.86 65.9752 256.836 67.8979C257.812 69.8059 258.3 72.0836 258.3 74.7311V96.4285H248.849V76.4172C248.864 74.3317 248.331 72.7048 247.252 71.5364C246.172 70.3531 244.685 69.7615 242.792 69.7615C241.52 69.7615 240.396 70.0351 239.42 70.5824C238.459 71.1296 237.704 71.9283 237.157 72.9784C236.625 74.0137 236.351 75.2635 236.336 76.7278ZM281.279 97.094C277.773 97.094 274.756 96.3841 272.227 94.9642C269.713 93.5296 267.775 91.5033 266.414 88.8854C265.054 86.2527 264.373 83.1394 264.373 79.5453C264.373 76.04 265.054 72.9636 266.414 70.3162C267.775 67.6687 269.69 65.6054 272.16 64.1264C274.645 62.6474 277.559 61.9079 280.901 61.9079C283.15 61.9079 285.242 62.2702 287.18 62.995C289.132 63.7049 290.833 64.7772 292.283 66.2118C293.747 67.6465 294.886 69.4509 295.699 71.6251C296.513 73.7845 296.919 76.3136 296.919 79.2125V81.8082H268.145V75.9513H288.023C288.023 74.5906 287.727 73.3852 287.136 72.335C286.544 71.2849 285.723 70.4641 284.673 69.8725C283.638 69.266 282.432 68.9628 281.057 68.9628C279.622 68.9628 278.35 69.2956 277.241 69.9612C276.146 70.612 275.288 71.492 274.667 72.6013C274.046 73.6957 273.728 74.9159 273.713 76.2619V81.8304C273.713 83.5165 274.024 84.9734 274.645 86.201C275.281 87.4286 276.176 88.3751 277.33 89.0407C278.483 89.7063 279.851 90.039 281.434 90.039C282.484 90.039 283.445 89.8911 284.318 89.5953C285.191 89.2995 285.938 88.8558 286.559 88.2642C287.18 87.6726 287.653 86.9479 287.979 86.09L296.72 86.6669C296.276 88.7671 295.366 90.6011 293.991 92.1689C292.63 93.7218 290.87 94.9346 288.711 95.8073C286.566 96.6651 284.089 97.094 281.279 97.094ZM28.5971 140.06C28.4196 138.27 27.6579 136.88 26.312 135.889C24.9661 134.898 23.1395 134.403 20.8322 134.403C19.2644 134.403 17.9407 134.624 16.861 135.068C15.7813 135.497 14.953 136.096 14.3762 136.865C13.8142 137.634 13.5331 138.507 13.5331 139.483C13.5036 140.297 13.6736 141.006 14.0434 141.613C14.428 142.219 14.953 142.744 15.6186 143.188C16.2841 143.617 17.0532 143.994 17.9259 144.319C18.7985 144.63 19.7303 144.896 20.7212 145.118L24.8034 146.094C26.7853 146.538 28.6045 147.13 30.261 147.869C31.9175 148.609 33.3522 149.518 34.565 150.598C35.7778 151.678 36.717 152.95 37.3825 154.414C38.0629 155.878 38.4105 157.557 38.4252 159.45C38.4105 162.231 37.7005 164.641 36.2954 166.682C34.9052 168.709 32.8937 170.284 30.261 171.408C27.6431 172.517 24.4854 173.072 20.7878 173.072C17.1198 173.072 13.9251 172.51 11.2037 171.386C8.49704 170.262 6.38202 168.598 4.85862 166.394C3.35001 164.175 2.55872 161.432 2.48477 158.163H11.7805C11.884 159.687 12.3203 160.959 13.0894 161.979C13.8733 162.985 14.916 163.747 16.2176 164.264C17.5339 164.767 19.0203 165.019 20.6769 165.019C22.3038 165.019 23.7163 164.782 24.9143 164.309C26.1271 163.835 27.0663 163.177 27.7318 162.334C28.3974 161.491 28.7302 160.522 28.7302 159.428C28.7302 158.407 28.427 157.549 27.8206 156.854C27.229 156.159 26.3563 155.568 25.2027 155.079C24.0638 154.591 22.6662 154.148 21.0096 153.748L16.0623 152.506C12.2316 151.574 9.20697 150.117 6.98843 148.135C4.76988 146.153 3.668 143.484 3.68279 140.126C3.668 137.375 4.40012 134.972 5.87915 132.916C7.37297 130.86 9.42143 129.256 12.0245 128.102C14.6276 126.948 17.5857 126.371 20.8987 126.371C24.2709 126.371 27.2142 126.948 29.7285 128.102C32.2577 129.256 34.2248 130.86 35.6299 132.916C37.035 134.972 37.7597 137.353 37.8041 140.06H28.5971ZM62.8348 138.352V145.451H42.3132V138.352H62.8348ZM46.9722 130.187H56.4232V161.957C56.4232 162.83 56.5563 163.51 56.8225 163.998C57.0888 164.471 57.4585 164.804 57.9318 164.996C58.4199 165.189 58.9819 165.285 59.6179 165.285C60.0616 165.285 60.5053 165.248 60.949 165.174C61.3928 165.085 61.7329 165.019 61.9696 164.974L63.456 172.007C62.9827 172.155 62.3172 172.325 61.4593 172.517C60.6015 172.724 59.5588 172.85 58.3312 172.894C56.0535 172.983 54.0568 172.68 52.3411 171.985C50.6402 171.29 49.3165 170.21 48.3699 168.746C47.4233 167.281 46.9574 165.433 46.9722 163.199V130.187ZM90.844 157.919V138.352H100.295V172.428H91.2211V166.239H90.8662C90.0971 168.235 88.8177 169.84 87.0281 171.053C85.2532 172.266 83.0865 172.872 80.5277 172.872C78.25 172.872 76.2459 172.355 74.5155 171.319C72.785 170.284 71.4317 168.812 70.4555 166.904C69.4942 164.996 69.0061 162.711 68.9913 160.049V138.352H78.4423V158.363C78.4571 160.374 78.9969 161.964 80.0618 163.133C81.1267 164.301 82.554 164.885 84.3436 164.885C85.4825 164.885 86.5474 164.627 87.5383 164.109C88.5293 163.576 89.328 162.793 89.9344 161.757C90.5556 160.722 90.8588 159.443 90.844 157.919ZM120.412 172.983C117.823 172.983 115.479 172.318 113.379 170.986C111.293 169.64 109.637 167.666 108.409 165.063C107.197 162.445 106.59 159.236 106.59 155.434C106.59 151.53 107.219 148.283 108.476 145.695C109.733 143.092 111.404 141.147 113.49 139.86C115.59 138.559 117.89 137.908 120.389 137.908C122.297 137.908 123.887 138.233 125.159 138.884C126.446 139.52 127.481 140.319 128.265 141.28C129.064 142.227 129.67 143.158 130.085 144.075H130.373V126.993H139.802V172.428H130.484V166.971H130.085C129.641 167.917 129.012 168.857 128.199 169.788C127.4 170.705 126.357 171.467 125.071 172.073C123.799 172.68 122.246 172.983 120.412 172.983ZM123.407 165.462C124.93 165.462 126.217 165.048 127.267 164.22C128.332 163.377 129.145 162.201 129.707 160.692C130.284 159.184 130.573 157.416 130.573 155.39C130.573 153.364 130.292 151.604 129.73 150.11C129.168 148.616 128.354 147.462 127.289 146.649C126.224 145.835 124.93 145.429 123.407 145.429C121.854 145.429 120.545 145.85 119.48 146.693C118.415 147.536 117.609 148.705 117.062 150.199C116.514 151.692 116.241 153.423 116.241 155.39C116.241 157.372 116.514 159.125 117.062 160.648C117.624 162.157 118.43 163.34 119.48 164.198C120.545 165.041 121.854 165.462 123.407 165.462ZM147.572 172.428V138.352H157.023V172.428H147.572ZM152.32 133.959C150.915 133.959 149.709 133.493 148.704 132.561C147.713 131.615 147.217 130.483 147.217 129.167C147.217 127.865 147.713 126.749 148.704 125.817C149.709 124.87 150.915 124.397 152.32 124.397C153.725 124.397 154.923 124.87 155.914 125.817C156.92 126.749 157.423 127.865 157.423 129.167C157.423 130.483 156.92 131.615 155.914 132.561C154.923 133.493 153.725 133.959 152.32 133.959ZM179.991 173.094C176.545 173.094 173.564 172.362 171.05 170.898C168.55 169.419 166.62 167.363 165.26 164.73C163.899 162.083 163.219 159.014 163.219 155.523C163.219 152.003 163.899 148.927 165.26 146.294C166.62 143.647 168.55 141.591 171.05 140.126C173.564 138.647 176.545 137.908 179.991 137.908C183.437 137.908 186.41 138.647 188.909 140.126C191.424 141.591 193.361 143.647 194.722 146.294C196.083 148.927 196.763 152.003 196.763 155.523C196.763 159.014 196.083 162.083 194.722 164.73C193.361 167.363 191.424 169.419 188.909 170.898C186.41 172.362 183.437 173.094 179.991 173.094ZM180.035 165.773C181.603 165.773 182.912 165.329 183.962 164.442C185.012 163.539 185.803 162.312 186.336 160.759C186.883 159.206 187.157 157.438 187.157 155.457C187.157 153.475 186.883 151.707 186.336 150.154C185.803 148.601 185.012 147.374 183.962 146.471C182.912 145.569 181.603 145.118 180.035 145.118C178.453 145.118 177.121 145.569 176.042 146.471C174.977 147.374 174.171 148.601 173.624 150.154C173.091 151.707 172.825 153.475 172.825 155.457C172.825 157.438 173.091 159.206 173.624 160.759C174.171 162.312 174.977 163.539 176.042 164.442C177.121 165.329 178.453 165.773 180.035 165.773Z" fill="#08061C"/>
<path d="M337.503 91.791C336.582 98.4903 331.597 104.396 323.17 109.311C314.75 114.223 302.977 118.094 288.673 120.748C260.07 126.056 221.472 126.475 179.665 120.731C137.858 114.987 100.803 104.173 74.6921 91.3488C61.6338 84.9352 51.3409 78.0322 44.5575 71.0317C37.7684 64.0253 34.5606 56.9943 35.481 50.295C36.4015 43.5957 41.3867 37.6904 49.8138 32.7746C58.2339 27.8629 70.0071 23.9918 84.3112 21.3376C112.914 16.0302 151.512 15.6109 193.319 21.3549C235.126 27.0989 272.181 37.9126 298.292 50.7372C311.35 57.1509 321.643 64.0538 328.426 71.0543C335.215 78.0607 338.423 85.0918 337.503 91.791Z" stroke="url(#paint0_linear_617_137)" stroke-width="1.07714"/>
<path d="M337.521 62.2572L339.474 76.5518C339.998 80.3851 343.013 83.3994 346.846 83.9231L361.14 85.8762L346.846 87.8293C343.013 88.3531 339.998 91.3674 339.474 95.2006L337.521 109.495L335.568 95.2006C335.045 91.3674 332.03 88.3531 328.197 87.8293L313.902 85.8762L328.197 83.9231C332.03 83.3994 335.045 80.3851 335.568 76.5518L337.521 62.2572Z" fill="#08061C"/>
<defs>
<linearGradient id="paint0_linear_617_137" x1="330.165" y1="129.129" x2="-1.44498" y2="41.2932" gradientUnits="userSpaceOnUse">
<stop/>
<stop offset="1" stop-opacity="0"/>
</linearGradient>
</defs>
</svg>
