<svg width="263" height="66" viewBox="0 0 263 66" fill="none" xmlns="http://www.w3.org/2000/svg">
<path d="M1.03053 27.0309V23.3519H18.3641V27.0309H11.9026V44.4572H7.49196V27.0309H1.03053ZM25.5263 35.306V44.4572H21.1362V23.3519H25.4026V31.4209H25.5881C25.9453 30.4866 26.5224 29.7549 27.3194 29.2259C28.1163 28.69 29.116 28.4221 30.3182 28.4221C31.4175 28.4221 32.3759 28.6625 33.1934 29.1435C34.0178 29.6175 34.6568 30.3011 35.1102 31.1942C35.5705 32.0805 35.7972 33.1419 35.7904 34.3786V44.4572H31.4003V35.1618C31.4072 34.1862 31.1598 33.427 30.6583 32.8843C30.1637 32.3415 29.4698 32.0702 28.5766 32.0702C27.9789 32.0702 27.4499 32.1973 26.9896 32.4515C26.5362 32.7057 26.1789 33.0766 25.9179 33.5644C25.6637 34.0453 25.5331 34.6259 25.5263 35.306ZM39.2452 44.4572V28.6282H43.6353V44.4572H39.2452ZM41.4506 26.5877C40.7979 26.5877 40.238 26.3713 39.7708 25.9385C39.3105 25.4988 39.0803 24.9732 39.0803 24.3618C39.0803 23.7572 39.3105 23.2385 39.7708 22.8057C40.238 22.366 40.7979 22.1461 41.4506 22.1461C42.1032 22.1461 42.6597 22.366 43.12 22.8057C43.5872 23.2385 43.8208 23.7572 43.8208 24.3618C43.8208 24.9732 43.5872 25.4988 43.12 25.9385C42.6597 26.3713 42.1032 26.5877 41.4506 26.5877ZM47.152 44.4572V28.6282H51.4081V31.39H51.573C51.8615 30.4076 52.3459 29.6656 53.026 29.1641C53.7062 28.6557 54.4894 28.4015 55.3756 28.4015C55.5955 28.4015 55.8325 28.4152 56.0867 28.4427C56.3409 28.4702 56.5642 28.508 56.7565 28.556V32.4515C56.5504 32.3896 56.2653 32.3347 55.9012 32.2866C55.5371 32.2385 55.2039 32.2144 54.9016 32.2144C54.2558 32.2144 53.6787 32.3553 53.1703 32.637C52.6688 32.9118 52.2703 33.2965 51.9749 33.7912C51.6863 34.2858 51.542 34.856 51.542 35.5018V44.4572H47.152ZM68.2392 28.6282V31.9259H58.7068V28.6282H68.2392ZM60.8709 24.8358H65.261V39.593C65.261 39.9984 65.3228 40.3144 65.4465 40.5411C65.5701 40.761 65.7419 40.9156 65.9618 41.0049C66.1885 41.0942 66.4495 41.1388 66.745 41.1388C66.9511 41.1388 67.1572 41.1217 67.3633 41.0873C67.5694 41.0461 67.7274 41.0152 67.8373 40.9946L68.5278 44.2614C68.3079 44.3301 67.9988 44.4091 67.6003 44.4984C67.2018 44.5946 66.7175 44.653 66.1472 44.6736C65.0892 44.7148 64.1618 44.5739 63.3648 44.251C62.5747 43.9281 61.9599 43.4266 61.5202 42.7465C61.0805 42.0663 60.8641 41.2075 60.8709 40.1701V24.8358ZM73.8092 50.393C73.2528 50.393 72.7306 50.3484 72.2428 50.259C71.7619 50.1766 71.3635 50.0701 71.0474 49.9396L72.0367 46.6625C72.552 46.8205 73.0157 46.9064 73.428 46.9201C73.847 46.9339 74.2077 46.8377 74.51 46.6316C74.8192 46.4255 75.0699 46.0751 75.2623 45.5804L75.5199 44.9106L69.8417 28.6282H74.4585L77.7356 40.2526H77.9005L81.2085 28.6282H85.8562L79.7039 46.1678C79.4085 47.0197 79.0066 47.7617 78.4982 48.3938C77.9966 49.0327 77.3611 49.5239 76.5917 49.8674C75.8222 50.2178 74.8947 50.393 73.8092 50.393ZM94.7445 44.7663C93.1437 44.7663 91.7594 44.4262 90.5915 43.7461C89.4304 43.0591 88.5338 42.1041 87.9018 40.8812C87.2697 39.6514 86.9537 38.2259 86.9537 36.6045C86.9537 34.9694 87.2697 33.5404 87.9018 32.3175C88.5338 31.0877 89.4304 30.1328 90.5915 29.4526C91.7594 28.7656 93.1437 28.4221 94.7445 28.4221C96.3453 28.4221 97.7262 28.7656 98.8872 29.4526C100.055 30.1328 100.955 31.0877 101.587 32.3175C102.219 33.5404 102.535 34.9694 102.535 36.6045C102.535 38.2259 102.219 39.6514 101.587 40.8812C100.955 42.1041 100.055 43.0591 98.8872 43.7461C97.7262 44.4262 96.3453 44.7663 94.7445 44.7663ZM94.7651 41.3656C95.4934 41.3656 96.1014 41.1595 96.5892 40.7472C97.0769 40.3282 97.4445 39.7579 97.6918 39.0366C97.946 38.3152 98.0731 37.4942 98.0731 36.5736C98.0731 35.653 97.946 34.832 97.6918 34.1106C97.4445 33.3892 97.0769 32.819 96.5892 32.3999C96.1014 31.9809 95.4934 31.7713 94.7651 31.7713C94.03 31.7713 93.4117 31.9809 92.9102 32.3999C92.4155 32.819 92.0411 33.3892 91.7869 34.1106C91.5395 34.832 91.4159 35.653 91.4159 36.5736C91.4159 37.4942 91.5395 38.3152 91.7869 39.0366C92.0411 39.7579 92.4155 40.3282 92.9102 40.7472C93.4117 41.1595 94.03 41.3656 94.7651 41.3656ZM109.78 35.306V44.4572H105.39V28.6282H109.574V31.4209H109.759C110.11 30.5003 110.697 29.7721 111.522 29.2362C112.346 28.6935 113.346 28.4221 114.52 28.4221C115.62 28.4221 116.578 28.6625 117.396 29.1435C118.213 29.6244 118.849 30.3114 119.302 31.2045C119.755 32.0908 119.982 33.1488 119.982 34.3786V44.4572H115.592V35.1618C115.599 34.1931 115.352 33.4373 114.85 32.8946C114.349 32.345 113.658 32.0702 112.779 32.0702C112.188 32.0702 111.666 32.1973 111.212 32.4515C110.766 32.7057 110.415 33.0766 110.161 33.5644C109.914 34.0453 109.787 34.6259 109.78 35.306ZM130.656 44.7663C129.028 44.7663 127.626 44.4365 126.451 43.777C125.283 43.1106 124.383 42.1694 123.751 40.9533C123.119 39.7304 122.803 38.2843 122.803 36.6148C122.803 34.9866 123.119 33.5576 123.751 32.3278C124.383 31.098 125.273 30.1396 126.42 29.4526C127.575 28.7656 128.928 28.4221 130.481 28.4221C131.525 28.4221 132.497 28.5904 133.397 28.927C134.304 29.2568 135.094 29.7549 135.767 30.4213C136.448 31.0877 136.977 31.9259 137.354 32.9358C137.732 33.9389 137.921 35.1137 137.921 36.4602V37.666H124.555V34.9453H133.789C133.789 34.3133 133.651 33.7534 133.377 33.2656C133.102 32.7778 132.72 32.3965 132.233 32.1217C131.752 31.84 131.192 31.6992 130.553 31.6992C129.886 31.6992 129.296 31.8538 128.78 32.1629C128.272 32.4652 127.874 32.874 127.585 33.3892C127.296 33.8976 127.149 34.4644 127.142 35.0896V37.6763C127.142 38.4595 127.286 39.1362 127.575 39.7064C127.87 40.2766 128.286 40.7163 128.822 41.0255C129.357 41.3346 129.993 41.4892 130.728 41.4892C131.216 41.4892 131.662 41.4205 132.068 41.2831C132.473 41.1457 132.82 40.9396 133.109 40.6648C133.397 40.39 133.617 40.0533 133.768 39.6549L137.828 39.9228C137.622 40.8984 137.2 41.7503 136.561 42.4785C135.929 43.1999 135.111 43.7633 134.108 44.1686C133.112 44.5671 131.961 44.7663 130.656 44.7663ZM152.318 29.4217C152.235 28.5904 151.881 27.9446 151.256 27.4843C150.631 27.024 149.783 26.7938 148.711 26.7938C147.983 26.7938 147.368 26.8969 146.866 27.103C146.365 27.3022 145.98 27.5805 145.712 27.9377C145.451 28.295 145.32 28.7003 145.32 29.1538C145.307 29.5316 145.386 29.8614 145.557 30.1431C145.736 30.4247 145.98 30.6686 146.289 30.8747C146.598 31.074 146.956 31.2492 147.361 31.4003C147.766 31.5446 148.199 31.6683 148.659 31.7713L150.556 32.2247C151.476 32.4308 152.321 32.7057 153.091 33.0492C153.86 33.3927 154.526 33.8152 155.09 34.3167C155.653 34.8182 156.089 35.4091 156.399 36.0892C156.715 36.7694 156.876 37.5492 156.883 38.4285C156.876 39.7201 156.546 40.84 155.894 41.7881C155.248 42.7293 154.314 43.461 153.091 43.9831C151.875 44.4984 150.408 44.756 148.69 44.756C146.986 44.756 145.502 44.4949 144.238 43.9728C142.981 43.4507 141.999 42.6778 141.291 41.6541C140.59 40.6236 140.223 39.3492 140.188 37.8308H144.506C144.554 38.5385 144.757 39.1293 145.114 39.6033C145.478 40.0705 145.963 40.4243 146.567 40.6648C147.179 40.8984 147.869 41.0152 148.639 41.0152C149.394 41.0152 150.051 40.9053 150.607 40.6854C151.17 40.4656 151.607 40.1598 151.916 39.7682C152.225 39.3766 152.38 38.9266 152.38 38.4182C152.38 37.9442 152.239 37.5457 151.957 37.2228C151.682 36.8999 151.277 36.6251 150.741 36.3984C150.212 36.1717 149.563 35.9656 148.793 35.7801L146.495 35.203C144.716 34.7702 143.311 34.0934 142.28 33.1728C141.25 32.2522 140.738 31.0122 140.745 29.4526C140.738 28.1748 141.078 27.0583 141.765 26.1034C142.459 25.1484 143.41 24.403 144.62 23.8671C145.829 23.3313 147.203 23.0633 148.742 23.0633C150.308 23.0633 151.675 23.3313 152.843 23.8671C154.018 24.403 154.932 25.1484 155.585 26.1034C156.237 27.0583 156.574 28.1644 156.594 29.4217H152.318ZM168.221 28.6282V31.9259H158.689V28.6282H168.221ZM160.853 24.8358H165.243V39.593C165.243 39.9984 165.305 40.3144 165.429 40.5411C165.552 40.761 165.724 40.9156 165.944 41.0049C166.171 41.0942 166.432 41.1388 166.727 41.1388C166.933 41.1388 167.139 41.1217 167.345 41.0873C167.552 41.0461 167.71 41.0152 167.819 40.9946L168.51 44.2614C168.29 44.3301 167.981 44.4091 167.582 44.4984C167.184 44.5946 166.7 44.653 166.129 44.6736C165.071 44.7148 164.144 44.5739 163.347 44.251C162.557 43.9281 161.942 43.4266 161.502 42.7465C161.063 42.0663 160.846 41.2075 160.853 40.1701V24.8358ZM181.232 37.7175V28.6282H185.622V44.4572H181.407V41.582H181.242C180.885 42.5094 180.291 43.2549 179.459 43.8182C178.635 44.3816 177.628 44.6633 176.44 44.6633C175.382 44.6633 174.451 44.4228 173.647 43.9419C172.843 43.461 172.215 42.7774 171.761 41.8911C171.315 41.0049 171.088 39.9434 171.081 38.7068V28.6282H175.471V37.9236C175.478 38.8579 175.729 39.5965 176.223 40.1392C176.718 40.682 177.381 40.9533 178.212 40.9533C178.741 40.9533 179.236 40.8331 179.696 40.5927C180.157 40.3453 180.528 39.9812 180.809 39.5003C181.098 39.0194 181.239 38.4251 181.232 37.7175ZM194.966 44.7148C193.764 44.7148 192.675 44.4056 191.699 43.7873C190.731 43.1621 189.961 42.2449 189.391 41.0358C188.828 39.8198 188.546 38.3289 188.546 36.5633C188.546 34.7495 188.838 33.2415 189.422 32.0392C190.006 30.8301 190.782 29.9267 191.751 29.3289C192.727 28.7244 193.795 28.4221 194.956 28.4221C195.842 28.4221 196.581 28.5732 197.172 28.8755C197.769 29.1709 198.25 29.5419 198.614 29.9885C198.985 30.4282 199.267 30.861 199.459 31.287H199.593V23.3519H203.973V44.4572H199.645V41.922H199.459C199.253 42.3617 198.961 42.798 198.583 43.2308C198.212 43.6568 197.728 44.0106 197.13 44.2923C196.54 44.5739 195.818 44.7148 194.966 44.7148ZM196.357 41.2213C197.065 41.2213 197.663 41.0289 198.151 40.6442C198.645 40.2526 199.023 39.7064 199.284 39.0056C199.552 38.3049 199.686 37.4839 199.686 36.5427C199.686 35.6015 199.556 34.7839 199.295 34.09C199.033 33.3961 198.656 32.8602 198.161 32.4824C197.666 32.1045 197.065 31.9156 196.357 31.9156C195.636 31.9156 195.028 32.1114 194.533 32.503C194.039 32.8946 193.664 33.4373 193.41 34.1312C193.156 34.8251 193.029 35.6289 193.029 36.5427C193.029 37.4633 193.156 38.2774 193.41 38.985C193.671 39.6858 194.046 40.2354 194.533 40.6339C195.028 41.0255 195.636 41.2213 196.357 41.2213ZM207.583 44.4572V28.6282H211.973V44.4572H207.583ZM209.788 26.5877C209.135 26.5877 208.575 26.3713 208.108 25.9385C207.648 25.4988 207.418 24.9732 207.418 24.3618C207.418 23.7572 207.648 23.2385 208.108 22.8057C208.575 22.366 209.135 22.1461 209.788 22.1461C210.441 22.1461 210.997 22.366 211.457 22.8057C211.925 23.2385 212.158 23.7572 212.158 24.3618C212.158 24.9732 211.925 25.4988 211.457 25.9385C210.997 26.3713 210.441 26.5877 209.788 26.5877ZM222.641 44.7663C221.04 44.7663 219.656 44.4262 218.488 43.7461C217.327 43.0591 216.431 42.1041 215.798 40.8812C215.166 39.6514 214.85 38.2259 214.85 36.6045C214.85 34.9694 215.166 33.5404 215.798 32.3175C216.431 31.0877 217.327 30.1328 218.488 29.4526C219.656 28.7656 221.04 28.4221 222.641 28.4221C224.242 28.4221 225.623 28.7656 226.784 29.4526C227.952 30.1328 228.852 31.0877 229.484 32.3175C230.116 33.5404 230.432 34.9694 230.432 36.6045C230.432 38.2259 230.116 39.6514 229.484 40.8812C228.852 42.1041 227.952 43.0591 226.784 43.7461C225.623 44.4262 224.242 44.7663 222.641 44.7663ZM222.662 41.3656C223.39 41.3656 223.998 41.1595 224.486 40.7472C224.974 40.3282 225.341 39.7579 225.589 39.0366C225.843 38.3152 225.97 37.4942 225.97 36.5736C225.97 35.653 225.843 34.832 225.589 34.1106C225.341 33.3892 224.974 32.819 224.486 32.3999C223.998 31.9809 223.39 31.7713 222.662 31.7713C221.927 31.7713 221.308 31.9809 220.807 32.3999C220.312 32.819 219.938 33.3892 219.684 34.1106C219.436 34.832 219.313 35.653 219.313 36.5736C219.313 37.4942 219.436 38.3152 219.684 39.0366C219.938 39.7579 220.312 40.3282 220.807 40.7472C221.308 41.1595 221.927 41.3656 222.662 41.3656Z" fill="#08061C"/>
<path d="M251.51 42.6376C251.082 45.7495 248.767 48.4926 244.852 50.776C240.941 53.0575 235.472 54.8557 228.828 56.0886C215.542 58.5539 197.612 58.7486 178.193 56.0805C158.773 53.4124 141.561 48.3893 129.432 42.4322C123.367 39.453 118.585 36.2465 115.435 32.9947C112.281 29.7402 110.791 26.4743 111.218 23.3624C111.646 20.2505 113.962 17.5074 117.876 15.224C121.787 12.9425 127.256 11.1444 133.9 9.91145C147.186 7.44615 165.116 7.25137 184.535 9.9195C203.955 12.5876 221.167 17.6107 233.296 23.5678C239.362 26.547 244.143 29.7535 247.294 33.0053C250.447 36.2598 251.937 39.5258 251.51 42.6376Z" stroke="url(#paint0_linear_617_213)" stroke-width="0.500341"/>
<path d="M251.518 28.9186L252.425 35.5585C252.669 37.3391 254.069 38.7393 255.849 38.9825L262.489 39.8898L255.849 40.797C254.069 41.0403 252.669 42.4405 252.425 44.221L251.518 50.861L250.611 44.221C250.368 42.4405 248.967 41.0403 247.187 40.797L240.547 39.8898L247.187 38.9825C248.967 38.7393 250.368 37.3391 250.611 35.5585L251.518 28.9186Z" fill="#08061C"/>
<defs>
<linearGradient id="paint0_linear_617_213" x1="248.101" y1="59.9814" x2="94.066" y2="19.181" gradientUnits="userSpaceOnUse">
<stop/>
<stop offset="1" stop-opacity="0"/>
</linearGradient>
</defs>
</svg>
